# xmcd
#
# Track frame offsets:
#	150
#	8180
#	26960
#	45972
#	63140
#	80101
#	95791
#	112784
#	123392
#	139661
#	157418
#	174396
#	189387
#
# Disc length: 2824 seconds
#
# Revision: 19
# Processed by: cddbd v1.5.2PL0 Copyright (c) Steve Scherf et al.
# Submitted via: EasyCDDAExtractor 15.3.0.1
#
DISCID=aa0b060d
DTITLE=Christina Aguilera - Back To Basics - CD 1
DYEAR=2006
DGENRE=Pop
TTITLE0=Intro (Back To Basics)
TTITLE1=Makes Me Wanna Pray
TTITLE2=Back In The Day
TTITLE3=Ain't No Other Man
TTITLE4=Understand
TTITLE5=Slow Down Baby
TTITLE6=Oh Mother
TTITLE7=F.U.S.S.
TTITLE8=On Our Way
TTITLE9=Without You
TTITLE10=Still Dirrty
TTITLE11=Here To Stay
TTITLE12=Thank You (Dedication To Fans...)
EXTD=
EXTT0=
EXTT1=
EXTT2=
EXTT3=
EXTT4=
EXTT5=
EXTT6=
EXTT7=
EXTT8=
EXTT9=
EXTT10=
EXTT11=
EXTT12=
PLAYORDER=
